<svg xmlns="http://www.w3.org/2000/svg" width="20.57" height="19" viewBox="0 0 20.57 19">
  <g id="Icon_ionic-ios-cart" data-name="Icon ionic-ios-cart" transform="translate(-3.382 -4.493)">
    <path id="Path_1" data-name="Path 1" d="M11.937,29.312a1.187,1.187,0,1,1-1.187-1.187,1.187,1.187,0,0,1,1.187,1.187Z" transform="translate(-1.832 -7.006)"/>
    <path id="Path_2" data-name="Path 2" d="M27.722,29.312a1.187,1.187,0,1,1-1.187-1.187,1.187,1.187,0,0,1,1.187,1.187Z" transform="translate(-6.512 -7.006)"/>
    <path id="Path_3" data-name="Path 3" d="M23.945,7.871a.291.291,0,0,0-.257-.208L7.577,6.106a.5.5,0,0,1-.371-.232,5.037,5.037,0,0,0-.6-.92c-.381-.465-1.1-.45-2.414-.46a.721.721,0,0,0-.806.7.707.707,0,0,0,.772.7,6.572,6.572,0,0,1,1.286.094c.232.069.42.45.49.782a.018.018,0,0,0,0,.015c.01.059.1.5.1.51L8.012,17.755a3.847,3.847,0,0,0,.717,1.766,1.974,1.974,0,0,0,1.627.8h11.7a.7.7,0,0,0,.712-.663.689.689,0,0,0-.693-.722H10.347a.575.575,0,0,1-.411-.139,2.22,2.22,0,0,1-.569-1.286L9.155,16.34a.027.027,0,0,1,.02-.03l13.737-2.325a.289.289,0,0,0,.242-.257L23.945,8A.282.282,0,0,0,23.945,7.871Z"/>
  </g>
</svg>
