
<svg xmlns="http://www.w3.org/2000/svg" width="12" height="12" viewBox="0 0 12 12">
  <g id="Icon_feather-plus-circle" data-name="Icon feather-plus-circle" transform="translate(-2.5 -2.5)">
    <path id="Path_6" data-name="Path 6" d="M14,8.5A5.5,5.5,0,1,1,8.5,3,5.5,5.5,0,0,1,14,8.5Z" fill="none" stroke="#fafafa" stroke-linecap="round" stroke-linejoin="round" stroke-width="1"/>
    <path id="Path_7" data-name="Path 7" d="M18,12v4.4" transform="translate(-9.5 -5.7)" fill="none" stroke="#fafafa" stroke-linecap="round" stroke-linejoin="round" stroke-width="1"/>
    <path id="Path_8" data-name="Path 8" d="M12,18h4.4" transform="translate(-5.7 -9.5)" fill="none" stroke="#fafafa" stroke-linecap="round" stroke-linejoin="round" stroke-width="1"/>

<svg xmlns="http://www.w3.org/2000/svg" width="17" height="17" viewBox="0 0 17 17">
  <g id="Icon_feather-plus-circle" data-name="Icon feather-plus-circle" transform="translate(-2.5 -2.5)">
    <path id="Path_15" data-name="Path 15" d="M19,11a8,8,0,1,1-8-8A8,8,0,0,1,19,11Z" fill="none" stroke="#fafafa" stroke-linecap="round" stroke-linejoin="round" stroke-width="1"/>
    <path id="Path_16" data-name="Path 16" d="M18,12v6.4" transform="translate(-7 -4.2)" fill="none" stroke="#fafafa" stroke-linecap="round" stroke-linejoin="round" stroke-width="1"/>
    <path id="Path_17" data-name="Path 17" d="M12,18h6.4" transform="translate(-4.2 -7)" fill="none" stroke="#fafafa" stroke-linecap="round" stroke-linejoin="round" stroke-width="1"/>

  </g>
</svg>
