<svg xmlns="http://www.w3.org/2000/svg" width="13.013" height="12.083" viewBox="0 0 13.013 12.083">
  <path id="Icon_ionic-ios-star" data-name="Icon ionic-ios-star" d="M14.769,7.558H10.5L9.2,3.683a.47.47,0,0,0-.883,0l-1.3,3.875h-4.3a.466.466,0,0,0-.465.465.342.342,0,0,0,.009.078.447.447,0,0,0,.195.328L5.965,10.9,4.617,14.822a.466.466,0,0,0,.16.523.449.449,0,0,0,.261.113.569.569,0,0,0,.29-.1l3.427-2.443,3.427,2.443a.544.544,0,0,0,.29.1.417.417,0,0,0,.259-.113.46.46,0,0,0,.16-.523L11.545,10.9l3.483-2.5.084-.073a.444.444,0,0,0-.343-.776Z" transform="translate(-2.25 -3.375)" fill="#ffa41c"/>
</svg>
